<svg xmlns="http://www.w3.org/2000/svg" width="64" height="18" fill="none">
    <path fill="#22202E" d="m1.992 17 2.16-4.728h8.832L15.144 17h1.92L9.768.92H7.392L.12 17h1.872ZM7.608 4.64l.864-2.088h.144l.888 2.088 2.784 6.096h-7.44l2.76-6.096ZM25.172 17l5.664-11.856h-1.848L24.212 15.32h-.144l-4.8-10.176H17.42L23.084 17h2.088Zm9.05-13.368V.92h-1.704v2.712h1.704Zm0 13.368V5.144h-1.704V17h1.704Zm8.674.24c3.888 0 6.456-2.568 6.456-6.168s-2.568-6.168-6.456-6.168c-3.864 0-6.432 2.568-6.432 6.168s2.568 6.168 6.432 6.168Zm0-1.536c-3.264 0-4.752-1.752-4.752-4.632 0-2.856 1.488-4.632 4.752-4.632s4.776 1.776 4.776 4.632c0 2.88-1.512 4.632-4.776 4.632ZM53.324 17v-5.736c0-3.048 1.512-4.8 4.392-4.8 2.712 0 3.888 1.416 3.888 3.864V17h1.704v-6.912c0-2.808-1.656-5.184-4.992-5.184-2.952 0-4.632 1.944-5.04 3.96h-.12v-3.72H51.62V17h1.704Z"/>
</svg>